<?xml version="1.0" encoding="UTF-8"?>
<svg width="40px" height="40px" viewBox="0 0 40 40" version="1.1" xmlns="http://www.w3.org/2000/svg" xmlns:xlink="http://www.w3.org/1999/xlink">
    <!-- Generator: Sketch 41.2 (35397) - http://www.bohemiancoding.com/sketch -->
    <title>arm</title>
    <desc>Created with Sketch.</desc>
    <defs></defs>
    <g id="Page-2" stroke="none" stroke-width="1" fill="none" fill-rule="evenodd">
        <g id="arm" fill="#FFFFFF">
            <path d="M20,40 C31.045695,40 40,31.045695 40,20 C40,8.954305 31.045695,0 20,0 C8.954305,0 0,8.954305 0,20 C0,31.045695 8.954305,40 20,40 Z M33.0050799,20.9523902 L29.2523152,24.1483455 C29.2928716,24.4034567 29.3204053,24.6626586 29.3204053,24.9285543 C29.3204053,27.6492442 27.1050612,29.8552492 24.3732747,29.8552492 C22.0165415,29.8552492 20.0486284,28.2137613 19.5500457,26.0174253 L10.2738039,22.8835743 C9.54081299,23.4376787 8.62959739,23.7708851 7.63838531,23.7708851 C5.22732892,23.7705133 3.27243844,21.8233382 3.27243844,19.422467 C3.27243844,17.0219676 5.22732892,15.0759083 7.63838531,15.0759083 C9.71159615,15.0759083 11.4432407,16.5150922 11.8901047,18.4433013 L20.8508255,21.470794 C21.7237172,20.5898051 22.927385,20.0375601 24.2612797,20.0078095 L25.60336,15.9453688 C25.5992671,15.8646703 25.5910815,15.7850876 25.5910815,15.7036454 C25.5910815,12.6337581 28.0914362,10.1451227 31.1752071,10.1451227 C34.2586059,10.1451227 36.7593328,12.6337581 36.7593328,15.7036454 C36.7593328,18.1357547 35.1887975,20.1974694 33.0050799,20.9523902 Z" id="Combined-Shape"></path>
            <path d="M26.8204226,15.7170331 C26.8204226,18.1015416 28.7619183,20.034585 31.1569754,20.034585 C33.5520325,20.034585 35.4946444,18.1015416 35.4946444,15.7170331 C35.4946444,13.331409 33.5516604,11.3983656 31.1569754,11.3983656 C28.7619183,11.3983656 26.8204226,13.331409 26.8204226,15.7170331 Z M34.253769,15.7386023 C34.253769,17.4425664 32.8662953,18.8244805 31.155115,18.8244805 C29.4420743,18.8244805 28.0557169,17.4425664 28.0557169,15.7386023 C28.0557169,14.0346382 29.4428185,12.653096 31.155115,12.653096 C32.8662953,12.653096 34.253769,14.0346382 34.253769,15.7386023 Z" id="Combined-Shape"></path>
            <path d="M26.9060002,25.3510124 C26.9060002,23.5358556 25.4277398,22.0635741 23.6045645,22.0635741 C23.3485758,22.0635741 23.1015169,22.095556 22.8626437,22.1498508 L24.7077716,22.7731253 C25.8779525,23.3978873 26.317375,24.8482278 25.690798,26.0125908 C25.0638489,27.1791852 23.6067969,27.6161467 22.4373602,26.9925003 L20.4489828,26.3205092 C20.8642203,27.662632 22.1199788,28.6380789 23.6045645,28.6380789 C25.4277398,28.6384508 26.9060002,27.1661693 26.9060002,25.3510124 Z" id="Steam-path"></path>
            <path d="M10.3835665,17.9345665 C9.8619151,16.9996547 8.86065696,16.3663394 7.71056818,16.3663394 C6.02208455,16.3663394 4.65321472,17.7292875 4.65321472,19.4101949 C4.65321472,21.0911023 6.02208455,22.4536785 7.71056818,22.4536785 C8.02274045,22.4536785 8.32337834,22.4071932 8.60690071,22.3205447 L7.15431365,21.8300321 C5.98376066,21.2060139 5.54322196,19.7553015 6.17017104,18.5898228 C6.79749219,17.4250879 8.25454417,16.9870107 9.42398094,17.611029 L10.3835665,17.9345665 Z" id="Steam-path"></path>
        </g>
    </g>
</svg>