<?xml version="1.0" encoding="UTF-8"?>
<svg width="48px" height="48px" viewBox="0 0 48 48" version="1.1" xmlns="http://www.w3.org/2000/svg" xmlns:xlink="http://www.w3.org/1999/xlink">
    <!-- Generator: Sketch 41.2 (35397) - http://www.bohemiancoding.com/sketch -->
    <title>Combined Shape</title>
    <desc>Created with Sketch.</desc>
    <defs></defs>
    <g id="Page-2" stroke="none" stroke-width="1" fill="none" fill-rule="evenodd">
        <path d="M24,48 C37.254834,48 48,37.254834 48,24 C48,10.745166 37.254834,0 24,0 C10.745166,0 0,10.745166 0,24 C0,37.254834 10.745166,48 24,48 Z M14.1818182,18 C15.9892955,18 17.4545455,16.5347501 17.4545455,14.7272727 C17.4545455,12.9197954 15.9892955,11.4545455 14.1818182,11.4545455 C12.3743408,11.4545455 10.9090909,12.9197954 10.9090909,14.7272727 C10.9090909,16.5347501 12.3743408,18 14.1818182,18 Z M24,18 C25.8074774,18 27.2727273,16.5347501 27.2727273,14.7272727 C27.2727273,12.9197954 25.8074774,11.4545455 24,11.4545455 C22.1925226,11.4545455 20.7272727,12.9197954 20.7272727,14.7272727 C20.7272727,16.5347501 22.1925226,18 24,18 Z M33.8181818,18 C35.6256592,18 37.0909091,16.5347501 37.0909091,14.7272727 C37.0909091,12.9197954 35.6256592,11.4545455 33.8181818,11.4545455 C32.0107045,11.4545455 30.5454545,12.9197954 30.5454545,14.7272727 C30.5454545,16.5347501 32.0107045,18 33.8181818,18 Z M14.1818182,27.2727273 C15.9892955,27.2727273 17.4545455,25.8074774 17.4545455,24 C17.4545455,22.1925226 15.9892955,20.7272727 14.1818182,20.7272727 C12.3743408,20.7272727 10.9090909,22.1925226 10.9090909,24 C10.9090909,25.8074774 12.3743408,27.2727273 14.1818182,27.2727273 Z M24,27.2727273 C25.8074774,27.2727273 27.2727273,25.8074774 27.2727273,24 C27.2727273,22.1925226 25.8074774,20.7272727 24,20.7272727 C22.1925226,20.7272727 20.7272727,22.1925226 20.7272727,24 C20.7272727,25.8074774 22.1925226,27.2727273 24,27.2727273 Z M33.8181818,27.2727273 C35.6256592,27.2727273 37.0909091,25.8074774 37.0909091,24 C37.0909091,22.1925226 35.6256592,20.7272727 33.8181818,20.7272727 C32.0107045,20.7272727 30.5454545,22.1925226 30.5454545,24 C30.5454545,25.8074774 32.0107045,27.2727273 33.8181818,27.2727273 Z M14.1818182,36.5454545 C15.9892955,36.5454545 17.4545455,35.0802046 17.4545455,33.2727273 C17.4545455,31.4652499 15.9892955,30 14.1818182,30 C12.3743408,30 10.9090909,31.4652499 10.9090909,33.2727273 C10.9090909,35.0802046 12.3743408,36.5454545 14.1818182,36.5454545 Z M24,36.5454545 C25.8074774,36.5454545 27.2727273,35.0802046 27.2727273,33.2727273 C27.2727273,31.4652499 25.8074774,30 24,30 C22.1925226,30 20.7272727,31.4652499 20.7272727,33.2727273 C20.7272727,35.0802046 22.1925226,36.5454545 24,36.5454545 Z M33.8181818,36.5454545 C35.6256592,36.5454545 37.0909091,35.0802046 37.0909091,33.2727273 C37.0909091,31.4652499 35.6256592,30 33.8181818,30 C32.0107045,30 30.5454545,31.4652499 30.5454545,33.2727273 C30.5454545,35.0802046 32.0107045,36.5454545 33.8181818,36.5454545 Z" id="Combined-Shape" fill="#FFFFFF"></path>
    </g>
</svg>