<?xml version="1.0" encoding="UTF-8"?>
<svg width="40px" height="40px" viewBox="0 0 40 40" version="1.1" xmlns="http://www.w3.org/2000/svg" xmlns:xlink="http://www.w3.org/1999/xlink">
    <!-- Generator: Sketch 41.2 (35397) - http://www.bohemiancoding.com/sketch -->
    <title>Group 2</title>
    <desc>Created with Sketch.</desc>
    <defs></defs>
    <g id="Page-2" stroke="none" stroke-width="1" fill="none" fill-rule="evenodd">
        <g id="Group-2" fill="#FFFFFF">
            <path d="M20,40 C31.045695,40 40,31.045695 40,20 C40,8.954305 31.045695,0 20,0 C8.954305,0 0,8.954305 0,20 C0,31.045695 8.954305,40 20,40 Z M19.9571261,16.210866 C23.1006404,16.210866 25.6489623,13.6274387 25.6489623,10.4406197 C25.6489623,7.2538006 23.1006404,4.67037331 19.9571261,4.67037331 C16.8136118,4.67037331 14.2652899,7.2538006 14.2652899,10.4406197 C14.2652899,13.6274387 16.8136118,16.210866 19.9571261,16.210866 Z M11.6012881,30.9527246 C14.7448024,30.9527246 17.2931243,28.3692973 17.2931243,25.1824783 C17.2931243,21.9956592 14.7448024,19.4122319 11.6012881,19.4122319 C8.4577738,19.4122319 5.90945195,21.9956592 5.90945195,25.1824783 C5.90945195,28.3692973 8.4577738,30.9527246 11.6012881,30.9527246 Z M28.3129641,30.9527246 C31.4564784,30.9527246 34.0048002,28.3692973 34.0048002,25.1824783 C34.0048002,21.9956592 31.4564784,19.4122319 28.3129641,19.4122319 C25.1694497,19.4122319 22.6211279,21.9956592 22.6211279,25.1824783 C22.6211279,28.3692973 25.1694497,30.9527246 28.3129641,30.9527246 Z" id="Combined-Shape"></path>
            <path d="M22.6211285,25.1852842 L14.3485861,25.1852842 C14.3450889,26.7176057 13.118704,27.9586974 11.6063856,27.9586974 C10.0919061,27.9586974 8.86417792,26.7140561 8.86417792,25.1787133 C8.86417792,23.6433704 10.0919061,22.3987292 11.6063856,22.3987292 C12.1023205,22.3987292 12.5675066,22.5321939 12.9689022,22.7656266 L18.5946254,12.8469787 C17.7730447,12.3668142 17.2200159,11.4673075 17.2200159,10.4368546 C17.2200159,8.90151182 18.4477441,7.65687053 19.9622236,7.65687053 C21.4767031,7.65687053 22.7044313,8.90151182 22.7044313,10.4368546 C22.7044313,11.4733469 22.144901,12.3773535 21.3153487,12.855378 L25.4708776,20.1819432 C23.767471,21.1790919 22.6211279,23.0450695 22.6211279,25.1824783 C22.6211279,25.1834136 22.6211281,25.1843489 22.6211285,25.1852842 Z" id="Void-1"></path>
            <path d="M26.8548804,22.5568832 L25.31959,19.8364773 C26.193786,19.324166 27.2085897,19.030977 28.2909409,19.030977 C29.4178207,19.030977 30.4714808,19.3487862 31.3694677,19.9008152 L29.7749592,22.554523 C30.6169177,23.0602557 31.1814176,23.9906462 31.1814176,25.0546991 C31.1814176,26.6585331 29.8989208,27.9586974 28.3168809,27.9586974 C26.734841,27.9586974 25.4523442,26.6585331 25.4523442,25.0546991 C25.4523442,23.9922994 26.0150914,23.0631469 26.8548804,22.5568832 Z" id="Void-2"></path>
        </g>
    </g>
</svg>