<?xml version="1.0" encoding="UTF-8"?>
<svg width="40px" height="40px" viewBox="0 0 40 40" version="1.1" xmlns="http://www.w3.org/2000/svg" xmlns:xlink="http://www.w3.org/1999/xlink">
    <!-- Generator: Sketch 41.2 (35397) - http://www.bohemiancoding.com/sketch -->
    <title>Combined Shape</title>
    <desc>Created with Sketch.</desc>
    <defs></defs>
    <g id="Page-2" stroke="none" stroke-width="1" fill="none" fill-rule="evenodd">
        <path d="M20,40 C31.045695,40 40,31.045695 40,20 C40,8.954305 31.045695,0 20,0 C8.954305,0 0,8.954305 0,20 C0,31.045695 8.954305,40 20,40 Z M11.8181818,15 C13.324413,15 14.5454545,13.7789584 14.5454545,12.2727273 C14.5454545,10.7664961 13.324413,9.54545455 11.8181818,9.54545455 C10.3119507,9.54545455 9.09090909,10.7664961 9.09090909,12.2727273 C9.09090909,13.7789584 10.3119507,15 11.8181818,15 Z M20,15 C21.5062311,15 22.7272727,13.7789584 22.7272727,12.2727273 C22.7272727,10.7664961 21.5062311,9.54545455 20,9.54545455 C18.4937689,9.54545455 17.2727273,10.7664961 17.2727273,12.2727273 C17.2727273,13.7789584 18.4937689,15 20,15 Z M28.1818182,15 C29.6880493,15 30.9090909,13.7789584 30.9090909,12.2727273 C30.9090909,10.7664961 29.6880493,9.54545455 28.1818182,9.54545455 C26.675587,9.54545455 25.4545455,10.7664961 25.4545455,12.2727273 C25.4545455,13.7789584 26.675587,15 28.1818182,15 Z M11.8181818,22.7272727 C13.324413,22.7272727 14.5454545,21.5062311 14.5454545,20 C14.5454545,18.4937689 13.324413,17.2727273 11.8181818,17.2727273 C10.3119507,17.2727273 9.09090909,18.4937689 9.09090909,20 C9.09090909,21.5062311 10.3119507,22.7272727 11.8181818,22.7272727 Z M20,22.7272727 C21.5062311,22.7272727 22.7272727,21.5062311 22.7272727,20 C22.7272727,18.4937689 21.5062311,17.2727273 20,17.2727273 C18.4937689,17.2727273 17.2727273,18.4937689 17.2727273,20 C17.2727273,21.5062311 18.4937689,22.7272727 20,22.7272727 Z M28.1818182,22.7272727 C29.6880493,22.7272727 30.9090909,21.5062311 30.9090909,20 C30.9090909,18.4937689 29.6880493,17.2727273 28.1818182,17.2727273 C26.675587,17.2727273 25.4545455,18.4937689 25.4545455,20 C25.4545455,21.5062311 26.675587,22.7272727 28.1818182,22.7272727 Z M11.8181818,30.4545455 C13.324413,30.4545455 14.5454545,29.2335039 14.5454545,27.7272727 C14.5454545,26.2210416 13.324413,25 11.8181818,25 C10.3119507,25 9.09090909,26.2210416 9.09090909,27.7272727 C9.09090909,29.2335039 10.3119507,30.4545455 11.8181818,30.4545455 Z M20,30.4545455 C21.5062311,30.4545455 22.7272727,29.2335039 22.7272727,27.7272727 C22.7272727,26.2210416 21.5062311,25 20,25 C18.4937689,25 17.2727273,26.2210416 17.2727273,27.7272727 C17.2727273,29.2335039 18.4937689,30.4545455 20,30.4545455 Z M28.1818182,30.4545455 C29.6880493,30.4545455 30.9090909,29.2335039 30.9090909,27.7272727 C30.9090909,26.2210416 29.6880493,25 28.1818182,25 C26.675587,25 25.4545455,26.2210416 25.4545455,27.7272727 C25.4545455,29.2335039 26.675587,30.4545455 28.1818182,30.4545455 Z" id="Combined-Shape" fill="#FFFFFF"></path>
    </g>
</svg>