<?xml version="1.0" encoding="UTF-8"?>
<svg width="301px" height="207px" viewBox="0 0 301 207" version="1.1" xmlns="http://www.w3.org/2000/svg" xmlns:xlink="http://www.w3.org/1999/xlink">
    <!-- Generator: Sketch 41.2 (35397) - http://www.bohemiancoding.com/sketch -->
    <title>Combined Shape</title>
    <desc>Created with Sketch.</desc>
    <defs>
        <linearGradient x1="29.0608946%" y1="50%" x2="67.5501141%" y2="50%" id="linearGradient-1">
            <stop stop-color="#FFFFFF" offset="0%"></stop>
            <stop stop-color="#FAE800" offset="54.3737888%"></stop>
            <stop stop-color="#F2CC00" offset="100%"></stop>
        </linearGradient>
    </defs>
    <g id="Page-2" stroke="none" stroke-width="1" fill="none" fill-rule="evenodd">
        <path d="M178.924754,136.456 L214.224,136.456 L255.984,205 L300.624,205 L253.968,128.104 C265.296057,123.303976 274.271967,115.480054 280.896,104.632 C287.520033,93.7839458 290.832,81.7360662 290.832,68.488 C290.832,60.2319587 289.200016,52.0240408 285.936,43.864 C282.671984,35.7039592 278.160029,28.4080322 272.4,21.976 C266.639971,15.5439678 259.77604,10.3600197 251.808,6.424 C243.83996,2.48798032 235.152047,0.52 225.744,0.52 L155.656,0.52 L165.828,0.52 L134.912,0.52 L134.912,105.064 C134.912,112.552037 134.192007,119.895964 132.752,127.096 C131.311993,134.296036 128.864017,140.679972 125.408,146.248 C121.951983,151.816028 117.440028,156.279983 111.872,159.64 C106.303972,163.000017 99.4880403,164.68 91.424,164.68 C83.3599597,164.68 76.5920274,163.048016 71.12,159.784 C65.6479726,156.519984 61.1840173,152.104028 57.728,146.536 C54.2719827,140.967972 51.7760077,134.632036 50.24,127.528 C48.7039923,120.423964 47.936,112.936039 47.936,105.064 L47.936,0.52 L0.704,0.52 L0.704,105.064 C0.704,118.504067 2.3839832,131.367939 5.744,143.656 C9.1040168,155.944061 14.383964,166.743953 21.584,176.056 C28.784036,185.368047 38.1439424,192.807972 49.664,198.376 C61.1840576,203.944028 75.1039184,206.728 91.424,206.728 C107.168079,206.728 120.751943,204.088026 132.176,198.808 C143.600057,193.527974 153.007963,186.280046 160.4,177.064 C167.792037,167.847954 173.263982,157.096061 176.816,144.808 C177.606991,142.071598 178.309909,139.2876 178.924754,136.456 Z M182.144,35.368 L223.152,35.368 C226.608017,35.368 230.015983,36.1839918 233.376,37.816 C236.736017,39.4480082 239.711987,41.7519851 242.304,44.728 C244.896013,47.7040149 246.959992,51.2079798 248.496,55.24 C250.032008,59.2720202 250.8,63.687976 250.8,68.488 C250.8,73.096023 250.128007,77.4159798 248.784,81.448 C247.439993,85.4800202 245.616012,88.9839851 243.312,91.96 C241.007988,94.9360149 238.272016,97.2879914 235.104,99.016 C231.935984,100.744009 228.528018,101.608 224.88,101.608 L182.144,101.608 L182.144,35.368 Z" id="Combined-Shape" fill="url(#linearGradient-1)"></path>
    </g>
</svg>